PathFileType	4	(X/Y/Z)	C:/Users/opensim2020/Desktop/walking_exp_matlab/subject03_walking08_straight_01.trc	
DataRate	CameraRate	NumFrames	NumMarkers	Units	OrigDataRate	OrigDataStartFrame	OrigNumFrames	
100.00	100.00	6	51	mm	100.00	595	451	
Frame#	Time	LFHD			RFHD			LBHD			RBHD			C7			T10			CLAV			STRN			RBAK			LSHO			LUPA			LELB			LFRM			LWRA			LWRB			LFIN			RSHO			RUPA			RELB			RFRM			RWRA			RWRB			RFIN			LASI			RASI			LPSI			RPSI			LTHI			LKNE			LTIB			LANK			LHEE			LTOE			RTHI			RKNE			RTIB			RANK			RHEE			RTOE			*39			*40			*41			*42			*43			*44			*45			*46			*47			*48			*49			*50			
		X1	Y1	Z1	X2	Y2	Z2	X3	Y3	Z3	X4	Y4	Z4	X5	Y5	Z5	X6	Y6	Z6	X7	Y7	Z7	X8	Y8	Z8	X9	Y9	Z9	X10	Y10	Z10	X11	Y11	Z11	X12	Y12	Z12	X13	Y13	Z13	X14	Y14	Z14	X15	Y15	Z15	X16	Y16	Z16	X17	Y17	Z17	X18	Y18	Z18	X19	Y19	Z19	X20	Y20	Z20	X21	Y21	Z21	X22	Y22	Z22	X23	Y23	Z23	X24	Y24	Z24	X25	Y25	Z25	X26	Y26	Z26	X27	Y27	Z27	X28	Y28	Z28	X29	Y29	Z29	X30	Y30	Z30	X31	Y31	Z31	X32	Y32	Z32	X33	Y33	Z33	X34	Y34	Z34	X35	Y35	Z35	X36	Y36	Z36	X37	Y37	Z37	X38	Y38	Z38	X39	Y39	Z39	X40	Y40	Z40	X41	Y41	Z41	X42	Y42	Z42	X43	Y43	Z43	X44	Y44	Z44	X45	Y45	Z45	X46	Y46	Z46	X47	Y47	Z47	X48	Y48	Z48	X49	Y49	Z49	X50	Y50	Z50	X51	Y51	Z51	

113	1.120	-1095.13074	-766.05524	1623.93713	-962.94177	-781.57666	1633.96033	-1103.48584	-891.17767	1574.02466	-972.78735	-902.54462	1583.71423	-1032.53601	-922.63324	1420.50024	-1028.11389	-963.08130	1110.26038	-1031.63000	-802.07587	1342.38269	-1034.60876	-761.42810	1176.07483	-931.54333	-976.16626	1248.47791	-1188.06128	-849.02533	1376.87097	-1255.70264	-864.77277	1178.03259	-1266.05676	-859.01501	1054.91663	-1264.29712	-829.56055	927.84515	-1232.61584	-806.18420	810.71515	-1282.17773	-831.39746	814.42529	-1270.87842	-813.44922	731.77722	-871.68036	-842.68158	1370.01172	-800.95593	-833.27869	1146.51697	-788.96100	-815.57898	1034.57568	-782.62469	-806.28497	897.86768	-816.20251	-786.94836	798.29529	-767.76660	-811.22925	798.17194	-778.94806	-799.84509	723.06604	-1145.57117	-804.03101	941.07904	-908.67987	-804.13940	937.51093	-1096.74854	-965.47955	971.75830	-946.85602	-962.95599	975.44513	-1181.64197	-853.81714	641.30750	-1139.00269	-836.55164	463.98828	-1141.44128	-866.29889	273.08270	-1099.15015	-857.62134	63.54840	-1061.58423	-893.08783	29.14959	-1088.27686	-702.02008	29.49163	-853.99451	-862.44397	642.11188	-871.91254	-852.51343	461.43069	-865.00336	-986.24847	320.41974	-905.49438	-1129.73694	156.61429	-956.88330	-1182.28662	162.78493	-937.65399	-1054.61487	34.79429																																				 
114	1.130	-1096.14929	-760.83240	1623.72974	-963.98682	-776.47229	1633.92969	-1104.62903	-885.84393	1573.58411	-973.97205	-897.37915	1583.41833	-1033.88696	-917.27722	1420.31238	-1029.35425	-957.82190	1110.15149	-1032.39392	-796.68311	1342.18384	-1035.39038	-756.06458	1175.86914	-933.22375	-971.29120	1248.38062	-1188.99890	-842.80402	1376.71436	-1257.22461	-857.30212	1178.01965	-1267.72693	-850.60712	1054.99084	-1265.44934	-820.27747	928.08905	-1233.71863	-796.35846	811.27777	-1283.55957	-820.88379	814.76971	-1272.06030	-802.22925	732.35059	-872.55878	-838.05811	1369.80115	-801.37323	-830.02368	1146.41663	-789.13751	-812.67200	1034.40503	-782.43927	-804.11029	897.65527	-815.84448	-785.27905	797.89215	-767.29175	-809.57263	798.10901	-778.16803	-798.32764	722.96381	-1146.62781	-798.57446	941.04333	-909.59039	-799.61310	937.24371	-1097.91541	-960.30109	971.58221	-948.06342	-958.17065	974.84326	-1182.34534	-849.51257	641.27545	-1139.09595	-834.08380	464.26007	-1141.90686	-864.98529	273.06638	-1099.06238	-857.58020	63.52320	-1061.86108	-893.20807	29.27550	-1088.23486	-701.91718	29.42156	-854.29657	-854.38892	641.81805	-872.74677	-840.23224	461.01257	-865.26489	-974.80219	321.55038	-905.44324	-1120.60718	160.23607	-957.49121	-1173.15405	166.13188	-934.75696	-1046.07666	37.55227																																				 
115	1.140	-1097.23120	-755.61768	1623.57654	-964.92865	-771.37360	1633.96277	-1105.70654	-880.52130	1573.16394	-975.07825	-892.19507	1583.19788	-1035.21045	-912.04773	1420.32251	-1030.52307	-952.65643	1110.08472	-1033.07556	-791.39459	1342.00769	-1035.86975	-751.08252	1175.60010	-934.76349	-966.62408	1248.37097	-1189.79932	-836.57129	1376.48071	-1258.62866	-849.75598	1178.01196	-1269.37134	-842.23218	1055.02332	-1266.68372	-811.00177	928.41998	-1234.51794	-786.70142	811.81689	-1284.80920	-810.31909	815.12592	-1273.26685	-791.17590	732.92920	-873.50543	-833.47363	1369.58557	-801.43970	-826.88776	1146.34106	-789.20905	-809.87451	1034.24512	-782.29712	-801.80695	897.47559	-815.42633	-783.29834	797.58545	-766.97583	-807.65619	798.00220	-777.53162	-796.51569	722.90686	-1147.42017	-793.30664	940.86255	-910.39032	-795.06598	936.96088	-1099.12134	-955.14862	971.39099	-949.29291	-953.43451	974.19843	-1183.27698	-845.49762	641.31140	-1140.16064	-831.73169	463.87402	-1142.32129	-863.66919	273.15515	-1099.04016	-857.50989	63.60001	-1062.08154	-893.23248	29.34199	-1088.23059	-701.82501	29.32095	-855.19037	-846.34888	641.69116	-873.19464	-828.20959	461.18155	-866.01996	-963.50275	322.92297	-905.80365	-1110.80933	162.90764	-958.46124	-1163.19751	168.27325	-931.43713	-1035.98975	40.43905																																				 
116	1.150	-1098.14685	-750.40619	1623.49121	-966.05426	-766.37500	1634.14307	-1106.68738	-875.21301	1572.79358	-976.06030	-887.05725	1583.07471	-1036.38330	-906.83832	1420.24243	-1031.66870	-947.64001	1110.06409	-1033.61475	-786.29248	1341.87769	-1036.37976	-745.95483	1175.44885	-936.19043	-962.05627	1248.43445	-1190.46924	-830.37299	1376.21814	-1259.98120	-842.09247	1177.97632	-1271.02075	-833.76135	1055.08044	-1267.72351	-801.62476	928.66742	-1235.24304	-777.22559	812.31262	-1286.03784	-799.72620	815.48291	-1274.38318	-779.91254	733.54401	-874.28394	-829.00073	1369.41260	-801.71985	-823.81897	1146.28076	-789.15613	-807.20026	1034.12061	-782.12421	-799.42560	897.31427	-815.00006	-781.08380	797.36481	-766.67432	-805.69427	797.93274	-776.88275	-794.32397	722.90625	-1148.30396	-788.00952	940.78119	-911.08984	-790.62982	936.73315	-1100.26196	-949.96582	971.19232	-950.47668	-948.80414	973.62177	-1183.94080	-841.88208	641.28613	-1140.39404	-829.90369	463.54419	-1142.70776	-862.49725	273.22125	-1099.01575	-857.58850	63.54954	-1062.14685	-893.29547	29.37001	-1088.22791	-701.81146	29.32055	-855.94580	-838.21436	641.66553	-873.89178	-816.36017	461.62436	-866.95959	-952.25250	324.47144	-906.16461	-1100.35303	165.44417	-959.49738	-1152.57751	169.48383	-927.56616	-1024.24072	43.32809																																				 
117	1.160	-1098.90137	-745.28082	1623.38074	-966.95013	-761.32013	1634.35352	-1107.59570	-869.93964	1572.51611	-977.00726	-881.93195	1583.06653	-1037.52820	-901.64819	1420.33289	-1032.85999	-942.64868	1110.12244	-1034.10327	-781.24866	1341.84277	-1036.84619	-740.99774	1175.37952	-937.57684	-957.57312	1248.53137	-1191.08875	-824.26141	1375.97351	-1261.23230	-834.26257	1177.95703	-1272.46606	-825.22546	1055.11328	-1268.81128	-792.13159	928.96558	-1235.91174	-767.70367	812.75928	-1287.16821	-789.07959	815.85779	-1275.42261	-768.63263	734.19989	-874.92645	-824.70062	1369.29980	-801.98645	-820.74207	1146.23511	-789.02008	-804.54944	1034.05981	-781.87048	-797.02686	897.25482	-814.55353	-778.46448	797.22211	-766.48743	-803.46143	797.86194	-776.40533	-791.86877	722.94238	-1149.20276	-782.72882	940.69275	-911.73712	-786.16467	936.68256	-1101.38831	-944.98987	970.95221	-951.65259	-944.12213	973.21503	-1184.51184	-838.50934	641.23181	-1140.39734	-828.27057	463.13950	-1142.99438	-861.37500	273.32098	-1099.05139	-857.31653	63.79539	-1062.18665	-893.32623	29.45607	-1088.22705	-701.77454	29.25615	-856.85175	-830.33771	641.96326	-874.64636	-804.79895	462.48840	-867.79608	-940.85223	325.98538	-906.73059	-1088.91003	166.99136	-960.69409	-1141.09326	169.59370	-924.19745	-1011.70221	45.69616																																				 
118	1.170	-1099.79944	-740.05609	1623.31714	-967.74164	-756.34985	1634.58203	-1108.41199	-864.69281	1572.28723	-977.86768	-876.83795	1583.15039	-1038.54370	-896.51544	1420.49963	-1034.02368	-937.75079	1110.27881	-1034.49768	-776.28601	1341.91638	-1037.00159	-736.17456	1175.39014	-938.89374	-953.17480	1248.65601	-1191.67078	-818.22504	1375.84741	-1262.31934	-826.40271	1177.97241	-1274.05872	-816.47382	1055.33630	-1269.88989	-782.63068	929.37982	-1236.69373	-757.81342	813.46149	-1288.34338	-778.34955	816.34631	-1276.50061	-757.31708	734.95551	-875.46277	-820.52753	1369.25000	-802.23389	-817.71222	1146.30640	-788.88824	-801.92450	1034.11243	-781.72662	-794.42957	897.27032	-814.16504	-775.61108	797.26794	-766.38293	-801.08112	797.90601	-776.04352	-789.18958	723.06195	-1149.99207	-777.70099	940.63611	-912.36176	-781.64087	936.73993	-1102.39502	-940.01196	970.90320	-952.79565	-939.42078	973.02710	-1184.91235	-835.21698	641.17609	-1141.23035	-825.46173	463.53058	-1143.20703	-860.21149	273.43338	-1099.02820	-857.23340	63.85712	-1062.15710	-893.29010	29.46551	-1088.20300	-701.78204	29.20235	-857.80933	-822.55188	642.50073	-875.31903	-793.45050	463.65027	-868.65717	-929.26129	327.35367	-907.32550	-1076.84277	167.86375	-961.83508	-1128.99939	168.94980	-920.91608	-998.02728	47.69509																																				 
